PathFileType	4	(X/Y/Z)	Walk1_0-155.trc
DataRate	CameraRate	NumFrames	NumMarkers	Units	OrigDataRate	OrigDataStartFrame	OrigNumFrames
30	30	7	22	m	30	96	155
Frame#	Time	Hip			RHip			RKnee			RAnkle			RBigToe			RSmallToe			RHeel			LHip			LKnee			LAnkle			LBigToe			LSmallToe			LHeel			Neck			Head			Nose			RShoulder			RElbow			RWrist			LShoulder			LElbow			LWrist		
		X1	Y1	Z1	X2	Y2	Z2	X3	Y3	Z3	X4	Y4	Z4	X5	Y5	Z5	X6	Y6	Z6	X7	Y7	Z7	X8	Y8	Z8	X9	Y9	Z9	X10	Y10	Z10	X11	Y11	Z11	X12	Y12	Z12	X13	Y13	Z13	X14	Y14	Z14	X15	Y15	Z15	X16	Y16	Z16	X17	Y17	Z17	X18	Y18	Z18	X19	Y19	Z19	X20	Y20	Z20	X21	Y21	Z21	X22	Y22	Z22
97	3.2333333333333334	0.12642186788426088	0.9069315140415444	0.34577963286803176	0.12146606238202222	0.8842570659160139	0.4601047042413515	0.2980068730063998	0.5659731893079243	0.4721096667310196	-0.03709698097097591	0.31483200562778657	0.43050469676385233	0.014865938811204934	0.09580402011680518	0.4381877966160399	-0.02950398857455835	0.12112124940155401	0.4740911797377559	-0.13352979466970055	0.29918404958933853	0.419491494372164	0.12001552360567061	0.8841258098005865	0.23493730739595456	0.15880041647336654	0.5116845980102237	0.26277458173678203	0.11290987385639828	0.10827165860078182	0.2717144495040234	0.3291833897523469	0.04690309547176745	0.29047611650009575	0.28937713785206864	0.04082135640647809	0.2319871608681904	0.06933076774564707	0.0466732772264505	0.2747486332345181	0.08359941308659904	1.5786841178212256	0.3556608330853468	0.13685345635993942	1.838291311419529	0.365470370271812	0.2192511472811902	1.6936620532293951	0.3607091346242152	0.01309639414843282	1.4671231974430576	0.5132186253248423	0.07402028390138381	1.1712142534069552	0.5716480329765523	0.11333850410905497	0.906381286052098	0.601352288140544	0.06643860864052029	1.464596973837303	0.1673247070430845	0.13403971912850224	1.1600731361383643	0.0910958074726174	0.23428416325905635	0.9112960079799449	0.08364294324880545
98	3.2666666666666666	0.16239545862266258	0.9097659840674782	0.34808061873755225	0.1571973529934793	0.8899206829799472	0.464894448881939	0.35864612780396016	0.5812783302149935	0.46802591933027066	0.06117658866394074	0.29510233875736164	0.4298307917502681	0.1549334506121573	0.08664501781804036	0.4498522098743142	0.10009141552423434	0.10768703844976994	0.480019151432757	-0.026792320423893727	0.26073188212065185	0.4224067895281708	0.15245587682707992	0.8885936366695547	0.23532118209153763	0.1752373963891007	0.5185085787258435	0.24438525266500058	0.12151560043307777	0.10646440500594324	0.27854145326297197	0.33117970795355334	0.03911553040248388	0.28771486987208283	0.29005378215556676	0.035818861536737266	0.2310675402725469	0.07897629656300074	0.03472486806848324	0.27202972425498656	0.10266194063762185	1.5951930485871313	0.3332019743536777	0.1807952695209608	1.8434125176783551	0.3674384564448784	0.27128006450082326	1.689726466735183	0.35038697663462715	0.048820218748193304	1.4751983299386144	0.5156221820891704	0.0736512999790955	1.165840626294816	0.5644597185437552	0.11643982966304818	0.9094304375128373	0.6059650787055555	0.1114901940389064	1.4685161670242437	0.16668167941443732	0.18708942893433755	1.1720473607972894	0.09185176649395382	0.310442092577612	0.9241675082009945	0.08974034684350513
99	3.3	0.19565423684006883	0.9139607520676247	0.3504227090410635	0.1920013785728759	0.8950206575687377	0.4665607198716104	0.4082937932214923	0.5892619997351224	0.4649744814155203	0.17302059305455134	0.2540692348462139	0.4337902141362387	0.31054521450339656	0.09248124491281859	0.46324097729124175	0.24283318599836728	0.1029619430688814	0.49567347889426266	0.10316195840768397	0.20042842128125757	0.4275019708488993	0.181836660404418	0.8906738996571101	0.23095695483830828	0.16825088988860476	0.5203013294149539	0.2571267410903983	0.12446040413579544	0.10797765736102156	0.2811360610189919	0.33352115915279895	0.03371249253706977	0.2824517662793355	0.2854549535600067	0.03015985290043027	0.2248810244456751	0.07227837129082412	0.04551447725949187	0.2870228249402465	0.14447458192562218	1.597374567565879	0.3345581280984025	0.22679260256833303	1.842345421964836	0.36366010512261926	0.32676195614554987	1.6906213265681531	0.3320787211375296	0.08505922147822428	1.4762323140585933	0.5185895739797024	0.09174109908096058	1.1701708807089723	0.5712537082669463	0.12485412518679632	0.9158637048781957	0.6130532004506312	0.15619088036317905	1.4719378408999064	0.16706075080855942	0.2342908474434685	1.178732756955076	0.08802069849665015	0.32563333934916533	0.9389573211431482	0.0400486550501297
100	3.3333333333333335	0.23153460815765317	0.9174667527663208	0.34891119437887974	0.24034811311161947	0.8916609784780427	0.47044167252689184	0.44930963120528755	0.579172739638532	0.45863625895281424	0.28215215602868216	0.20912568122443093	0.4384861570993712	0.47650666524051416	0.0759622635656317	0.45428996718094855	0.41886364620287697	0.07228720933071822	0.4826201627080909	0.21863592253051695	0.14785304553090567	0.43750650081881387	0.2166123520784393	0.8869518700408802	0.234102021005434	0.18145274433595449	0.5157866287736174	0.25933785834630824	0.13029035454169482	0.10913549357524376	0.28256033170624806	0.33562866820996207	0.022866419738207685	0.29243631196637027	0.29104040891924016	0.024104023676990816	0.2350691573000365	0.07556318203023683	0.04830972945761324	0.2915617055474853	0.18558323682453692	1.5966633292993435	0.336990224868944	0.2994649737251518	1.8457474111811836	0.40241845693044936	0.3689345483485691	1.6873280672041182	0.3339576552280734	0.12420272617015779	1.4754192659640524	0.5232054899371121	0.1137188030174684	1.1733375130010921	0.5760864992332909	0.1380203191558309	0.9208833556326432	0.6186425915960476	0.19706324494525732	1.4741211514178303	0.165832552484097	0.28034360905309336	1.1842749858479567	0.08487726480392382	0.3980115884602104	0.9507604519839835	0.050606212862908666
101	3.3666666666666667	0.2664484997952497	0.9167989056412785	0.35227150575547994	0.27980262373345294	0.88971470218589	0.4740102751783863	0.48881800719531243	0.570219877525772	0.45023396744573285	0.4128894292390019	0.16713621109115548	0.44681071280823526	0.6183208003224796	0.0808828801715823	0.45950354315064496	0.5769834625033426	0.07384297992307336	0.49347879325782723	0.3698130813953872	0.09979535458576186	0.44489154059584607	0.24671230880165068	0.8872267601984645	0.23668998662283927	0.2056985278848445	0.5015483248154097	0.2639884118720727	0.13377885717464388	0.10642994410411034	0.28565347339880176	0.3306922828610661	0.026382987974429298	0.2990401496524631	0.2833705120491751	0.022182635132555847	0.23720758875639594	0.07593681921116191	0.04895637198150976	0.29519171716645504	0.22558500012720883	1.5952418249397478	0.3369993223153506	0.30684588754346487	1.848376341848902	0.3675642198509374	0.3959997946756614	1.6823472850071102	0.3511565270300924	0.16615270343480834	1.4741079731426925	0.5224714378016198	0.13637791364222884	1.173587902130672	0.5780065042139358	0.15397663373969792	0.9168597922359321	0.6242107557093562	0.24098581218606732	1.4733363425465873	0.17029687196984764	0.3256691148318175	1.188264935986925	0.08243542814468832	0.5000922714181053	0.9682531356384749	0.0945558503300727
102	3.4	0.30447992376311284	0.9125697027402033	0.3526032963965799	0.31647933287542024	0.8863447750719426	0.469158807985524	0.5191094438798934	0.559699285274919	0.450609706254227	0.5270635865430174	0.14886593398197712	0.45381404225944283	0.7317032430128035	0.0944272960176597	0.46462594527643003	0.6990490403053055	0.08006666934090573	0.49892200006736703	0.5079076712101452	0.07551869573047582	0.4529382216368193	0.28458000684362034	0.8861976885664099	0.24009453238441708	0.2069403954561326	0.5065819720732	0.2534013742606363	0.13510469217130464	0.11774457318133161	0.28391384752728016	0.3277387584649543	0.03095651508366955	0.2956777229409462	0.2505151056980527	0.018258474906013508	0.21018166752013256	0.07444128894140546	0.042950598965896446	0.3011380746627968	0.26682130800219217	1.5907275953607907	0.33897963888810206	0.32650061535474334	1.8474353837936466	0.3528458867913357	0.45493949755353297	1.6745636549628915	0.3454967242287699	0.20687318090066192	1.471418587859398	0.5179994178540446	0.16810799344848418	1.1723649387641786	0.5772314679466535	0.17700895773314582	0.9129615567865936	0.6286794137973851	0.28490795075376135	1.4727843153582723	0.1750994573309251	0.3702343998364371	1.1907855044688052	0.08598304519724145	0.5585385323672016	0.9814576475799833	0.10067005036246159
103	3.433333333333333	0.34596707745705135	0.9053130531936548	0.3567486796075218	0.35499005921183846	0.8788573195568365	0.46896273446014325	0.5531159659903977	0.5453250012830955	0.4554324839441711	0.6266065124811431	0.15340924271437648	0.4637216367750592	0.8364401834046186	0.11035153502541312	0.46741456517970537	0.8041958046582882	0.09591186686098369	0.5098956979077456	0.6146187482015933	0.0826363371802802	0.4686343892413546	0.32398506686845663	0.8785138719958768	0.24496455190376465	0.2474116062613848	0.4902021181759988	0.27858221366078273	0.13729967032215615	0.11206332290907237	0.2824808442799689	0.2899378122251981	0.020358734837278264	0.2570073840017305	0.28100511926318705	0.015615212000964435	0.2321709500055236	0.07586161976154658	0.05761115104630991	0.29331288146901235	0.3086337176211518	1.5862204573733323	0.34108959109974885	0.38771269456671453	1.837318781342145	0.37617251018752584	0.49286037454536863	1.669422316713348	0.3519552556012681	0.24753784105900448	1.4632923932378357	0.519404099591529	0.20128764190117396	1.1673820281382392	0.5784026098809802	0.20105943631970521	0.9073339633104465	0.6330279618340978	0.3315903552967032	1.469918390129864	0.1787766993699735	0.41588134305515545	1.1882687833533585	0.0873340428238985	0.6161013149144035	0.9897940505674468	0.10723247283145408
